<svg width="281" height="281" viewBox="0 0 281 281" fill="none" xmlns="http://www.w3.org/2000/svg">
<path d="M216.103 280.601H64.8047C29.0053 280.601 0 251.465 0 215.666V118.851C0 101.081 10.975 78.7394 25.0857 67.7644L95.5085 12.8895C116.675 -3.57291 150.514 -4.35684 172.464 11.0603L253.209 67.6338C268.756 78.4781 280.907 101.735 280.907 120.68V215.796C280.907 251.465 251.902 280.601 216.103 280.601ZM107.529 28.3067L37.1059 83.1817C27.8294 90.4983 19.5982 107.091 19.5982 118.851V215.666C19.5982 240.621 39.8496 261.003 64.8047 261.003H216.103C241.058 261.003 261.309 240.751 261.309 215.796V120.68C261.309 108.137 252.294 90.7596 241.972 83.7043L161.228 27.1309C146.333 16.6785 121.77 17.2011 107.529 28.3067Z" fill="#0B0C0D"/>
<path d="M140.454 228.339C135.097 228.339 130.655 223.897 130.655 218.54V179.344C130.655 173.987 135.097 169.545 140.454 169.545C145.81 169.545 150.253 173.987 150.253 179.344V218.54C150.253 223.897 145.81 228.339 140.454 228.339Z" fill="#0B0C0D"/>
</svg>
