<svg width="303" height="303" viewBox="0 0 303 303" fill="none" xmlns="http://www.w3.org/2000/svg">
<path d="M153.139 162.409C152.156 162.269 150.892 162.269 149.768 162.409C125.048 161.566 105.384 141.341 105.384 116.48C105.384 91.0583 125.891 70.4116 151.454 70.4116C176.876 70.4116 197.522 91.0583 197.522 116.48C197.382 141.341 177.859 161.566 153.139 162.409Z" stroke="#0B0C0D" stroke-width="21.068" stroke-linecap="round" stroke-linejoin="round"/>
<path d="M246.119 255.11C221.119 278.004 187.972 291.909 151.454 291.909C114.936 291.909 81.7888 278.004 56.7881 255.11C58.1926 241.907 66.6198 228.986 81.6484 218.873C120.133 193.311 183.056 193.311 221.259 218.873C236.288 228.986 244.715 241.907 246.119 255.11Z" stroke="#0B0C0D" stroke-width="21.068" stroke-linecap="round" stroke-linejoin="round"/>
<path d="M151.454 291.907C229.023 291.907 291.907 229.023 291.907 151.454C291.907 73.8832 229.023 11 151.454 11C73.8832 11 11 73.8832 11 151.454C11 229.023 73.8832 291.907 151.454 291.907Z" stroke="#0B0C0D" stroke-width="21.068" stroke-linecap="round" stroke-linejoin="round"/>
</svg>
