<svg width="281" height="281" viewBox="0 0 281 281" fill="none" xmlns="http://www.w3.org/2000/svg">
<path d="M179.65 280.907H101.257C30.3119 280.907 0 250.595 0 179.65V101.257C0 30.3119 30.3119 0 101.257 0H179.65C250.595 0 280.907 30.3119 280.907 101.257V179.65C280.907 250.595 250.595 280.907 179.65 280.907ZM101.257 19.5982C41.0255 19.5982 19.5982 41.0255 19.5982 101.257V179.65C19.5982 239.882 41.0255 261.309 101.257 261.309H179.65C239.882 261.309 261.309 239.882 261.309 179.65V101.257C261.309 41.0255 239.882 19.5982 179.65 19.5982H101.257Z" fill="#0B0C0D"/>
<path d="M264.308 86.3609H16.587C11.2302 86.3609 6.7879 81.9186 6.7879 76.5618C6.7879 71.205 11.0995 66.7627 16.587 66.7627H264.308C269.664 66.7627 274.107 71.205 274.107 76.5618C274.107 81.9186 269.795 86.3609 264.308 86.3609Z" fill="#0B0C0D"/>
<path d="M94.9798 84.5317C89.6229 84.5317 85.1807 80.0895 85.1807 74.7326V11.2345C85.1807 5.87768 89.6229 1.43542 94.9798 1.43542C100.337 1.43542 104.779 5.87768 104.779 11.2345V74.7326C104.779 80.0895 100.337 84.5317 94.9798 84.5317Z" fill="#0B0C0D"/>
<path d="M185.928 78.6523C180.572 78.6523 176.129 74.21 176.129 68.8532V11.2345C176.129 5.87768 180.572 1.43542 185.928 1.43542C191.285 1.43542 195.727 5.87768 195.727 11.2345V68.8532C195.727 74.3407 191.416 78.6523 185.928 78.6523Z" fill="#0B0C0D"/>
<path d="M128.564 220.412C123.861 220.412 119.418 219.236 115.368 217.015C106.483 211.789 101.257 201.336 101.257 188.14V156.783C101.257 143.587 106.483 133.004 115.499 127.778C124.514 122.552 136.273 123.336 147.64 129.999L174.816 145.678C186.183 152.21 192.846 162.009 192.846 172.462C192.846 182.914 186.183 192.713 174.685 199.246L147.509 214.924C141.238 218.583 134.705 220.412 128.564 220.412ZM128.695 143.979C127.388 143.979 126.212 144.24 125.298 144.763C122.554 146.331 120.855 150.773 120.855 156.783V188.14C120.855 194.02 122.554 198.462 125.298 200.16C128.041 201.728 132.745 200.944 137.841 197.939L165.017 182.261C170.112 179.256 173.248 175.597 173.248 172.462C173.248 169.326 170.243 165.668 165.017 162.663L137.841 146.984C134.444 145.024 131.177 143.979 128.695 143.979Z" fill="#0B0C0D"/>
</svg>
